<svg width="24" height="24" viewBox="0 0 24 24" fill="none" xmlns="http://www.w3.org/2000/svg">
<path d="M19.1401 12.9394C19.1801 12.6394 19.2001 12.3294 19.2001 11.9994C19.2001 11.6794 19.1801 11.3594 19.1301 11.0594L21.1601 9.47941C21.3401 9.33941 21.3901 9.06941 21.2801 8.86941L19.3601 5.54941C19.2401 5.32941 18.9901 5.25941 18.7701 5.32941L16.3801 6.28941C15.8801 5.90941 15.3501 5.58941 14.7601 5.34941L14.4001 2.80941C14.3601 2.56941 14.1601 2.39941 13.9201 2.39941H10.0801C9.84011 2.39941 9.65011 2.56941 9.61011 2.80941L9.25011 5.34941C8.66011 5.58941 8.12011 5.91941 7.63011 6.28941L5.24011 5.32941C5.02011 5.24941 4.77011 5.32941 4.65011 5.54941L2.74011 8.86941C2.62011 9.07941 2.66011 9.33941 2.86011 9.47941L4.89011 11.0594C4.84011 11.3594 4.80011 11.6894 4.80011 11.9994C4.80011 12.3094 4.82011 12.6394 4.87011 12.9394L2.84011 14.5194C2.66011 14.6594 2.61011 14.9294 2.72011 15.1294L4.64011 18.4494C4.76011 18.6694 5.01011 18.7394 5.23011 18.6694L7.62011 17.7094C8.12011 18.0894 8.65011 18.4094 9.24011 18.6494L9.60011 21.1894C9.65011 21.4294 9.84011 21.5994 10.0801 21.5994H13.9201C14.1601 21.5994 14.3601 21.4294 14.3901 21.1894L14.7501 18.6494C15.3401 18.4094 15.8801 18.0894 16.3701 17.7094L18.7601 18.6694C18.9801 18.7494 19.2301 18.6694 19.3501 18.4494L21.2701 15.1294C21.3901 14.9094 21.3401 14.6594 21.1501 14.5194L19.1401 12.9394ZM12.0001 15.5994C10.0201 15.5994 8.40011 13.9794 8.40011 11.9994C8.40011 10.0194 10.0201 8.39941 12.0001 8.39941C13.9801 8.39941 15.6001 10.0194 15.6001 11.9994C15.6001 13.9794 13.9801 15.5994 12.0001 15.5994Z" fill="black"/>
</svg>
